<svg xmlns="http://www.w3.org/2000/svg" viewBox="0 0 519.04 519.04"><defs><style>.cls-1{fill:#2b3c64;}.cls-2{fill:#fff;}.cls-3{fill:#808ca3;}</style></defs><title>Asset 3</title><g id="Layer_2" data-name="Layer 2"><g id="Layer_1-2" data-name="Layer 1"><circle class="cls-1" cx="259.52" cy="259.52" r="259.52"/><path class="cls-2" d="M224.55,291.36h-.09l-7,16.47h13.68Zm-1.8-5.11h3.74l14.24,33.5H236.1l-3.41-8.23H215.94l-3.45,8.23H208Z"/><polygon class="cls-2" points="258.35 286.25 262.32 286.25 262.32 316.06 277.65 316.06 277.65 319.75 258.35 319.75 258.35 286.25"/><polygon class="cls-2" points="297.34 286.25 301.32 286.25 301.32 316.06 316.65 316.06 316.65 319.75 297.34 319.75 297.34 286.25"/><path class="cls-2" d="M352.24,292.17a5.84,5.84,0,0,0-2.65-2.35,8.38,8.38,0,0,0-3.45-.73,10.3,10.3,0,0,0-2.6.33,7.59,7.59,0,0,0-2.3,1,4.93,4.93,0,0,0-2.25,4.31,5.22,5.22,0,0,0,.36,2,4.23,4.23,0,0,0,1.15,1.59,8.89,8.89,0,0,0,2.18,1.32,30.11,30.11,0,0,0,3.36,1.23c1.3.41,2.55.86,3.76,1.33A12.65,12.65,0,0,1,353,304a8,8,0,0,1,2.22,2.73,8.86,8.86,0,0,1,.83,4.09,8.79,8.79,0,0,1-3.62,7.4,11.32,11.32,0,0,1-3.76,1.81,16.55,16.55,0,0,1-4.4.58,17,17,0,0,1-2.93-.25,14.74,14.74,0,0,1-2.82-.81,11.47,11.47,0,0,1-2.53-1.42,8.37,8.37,0,0,1-2-2.16l3.4-2.78a7,7,0,0,0,3,2.78,9.19,9.19,0,0,0,4.12,1,9.3,9.3,0,0,0,2.58-.37,8.16,8.16,0,0,0,2.34-1.12,6,6,0,0,0,1.7-1.82,4.75,4.75,0,0,0,.66-2.51,5.31,5.31,0,0,0-.52-2.53,4.59,4.59,0,0,0-1.61-1.68,12.11,12.11,0,0,0-2.74-1.27l-3.88-1.33a24,24,0,0,1-3.31-1.3,10.19,10.19,0,0,1-2.63-1.8,7.78,7.78,0,0,1-1.75-2.55,9,9,0,0,1-.64-3.58,8.64,8.64,0,0,1,3.5-7.21,11.59,11.59,0,0,1,3.65-1.83,14.92,14.92,0,0,1,4.26-.61,14.55,14.55,0,0,1,5.18.88,10.1,10.1,0,0,1,4.18,3.05Z"/><path class="cls-2" d="M391.38,316.91a13.08,13.08,0,0,0,5.37-1.08,12.63,12.63,0,0,0,4.19-3,13.39,13.39,0,0,0,2.72-4.42,15.63,15.63,0,0,0,0-10.84,13.39,13.39,0,0,0-2.72-4.42,12.6,12.6,0,0,0-4.19-3,13.77,13.77,0,0,0-10.74,0,12.7,12.7,0,0,0-4.19,3,13.73,13.73,0,0,0-2.72,4.42,15.63,15.63,0,0,0,0,10.84,13.73,13.73,0,0,0,2.72,4.42,12.73,12.73,0,0,0,4.19,3,13.11,13.11,0,0,0,5.37,1.08m0,3.69a18.21,18.21,0,0,1-7-1.32,16.86,16.86,0,0,1-5.54-3.67,16.35,16.35,0,0,1-3.64-5.58,19.52,19.52,0,0,1,0-14.06,16.45,16.45,0,0,1,3.64-5.58,17,17,0,0,1,5.54-3.67,19.35,19.35,0,0,1,14.05,0,17,17,0,0,1,5.54,3.67,16.6,16.6,0,0,1,3.64,5.58,19.66,19.66,0,0,1,0,14.06,16.5,16.5,0,0,1-3.64,5.58,16.86,16.86,0,0,1-5.54,3.67,18.23,18.23,0,0,1-7,1.32"/><path class="cls-2" d="M432.42,301h6.72a8.11,8.11,0,0,0,4.85-1.35,5.62,5.62,0,0,0,0-8.37,8.11,8.11,0,0,0-4.85-1.35h-6.72Zm-4-14.76h9.94a21,21,0,0,1,4.42.45,10.93,10.93,0,0,1,3.74,1.51,7.84,7.84,0,0,1,2.61,2.84,9.15,9.15,0,0,1,1,4.38,9,9,0,0,1-1,4.54,8.14,8.14,0,0,1-2.68,2.84,10.78,10.78,0,0,1-3.57,1.47,17.55,17.55,0,0,1-3.69.42h-6.72v15.05h-4Z"/><path class="cls-2" d="M473.64,301h6.72a8.09,8.09,0,0,0,4.85-1.35,5.62,5.62,0,0,0,0-8.37,8.09,8.09,0,0,0-4.85-1.35h-6.72Zm-4-14.76h9.94a21.19,21.19,0,0,1,4.43.45,11,11,0,0,1,3.73,1.51,7.84,7.84,0,0,1,2.61,2.84,9.15,9.15,0,0,1,1,4.38,9,9,0,0,1-1,4.54,8.14,8.14,0,0,1-2.68,2.84,10.7,10.7,0,0,1-3.57,1.47,17.41,17.41,0,0,1-3.69.42h-6.72v15.05h-4Z"/><path class="cls-2" d="M190.59,238.06h-.09l-7,16.46h13.68Zm-1.8-5.11h3.74l14.24,33.5h-4.63l-3.41-8.24H182l-3.46,8.24H174Z"/><polygon class="cls-2" points="224.38 232.95 228.36 232.95 228.36 262.76 243.69 262.76 243.69 266.45 224.38 266.45 224.38 232.95"/><polygon class="cls-2" points="263.38 232.95 267.36 232.95 267.36 262.76 282.69 262.76 282.69 266.45 263.38 266.45 263.38 232.95"/><path class="cls-2" d="M318.28,238.86a5.93,5.93,0,0,0-2.65-2.34,8.45,8.45,0,0,0-3.45-.73,9.94,9.94,0,0,0-2.61.33,7.64,7.64,0,0,0-2.29,1,5,5,0,0,0-1.64,1.75,5.13,5.13,0,0,0-.61,2.56,5.5,5.5,0,0,0,.35,2,4.34,4.34,0,0,0,1.16,1.58,8.9,8.9,0,0,0,2.18,1.33,29.38,29.38,0,0,0,3.36,1.23c1.29.41,2.55.85,3.76,1.32a13,13,0,0,1,3.22,1.8,8,8,0,0,1,2.22,2.72,10.28,10.28,0,0,1-.16,8.45,9.24,9.24,0,0,1-2.63,3.05,11.4,11.4,0,0,1-3.76,1.8,16.56,16.56,0,0,1-4.4.59,17.18,17.18,0,0,1-2.94-.26,13.51,13.51,0,0,1-2.81-.81,11.43,11.43,0,0,1-2.53-1.41,8.76,8.76,0,0,1-2-2.16l3.41-2.79a7,7,0,0,0,3,2.79,9.2,9.2,0,0,0,6.69.57,7.83,7.83,0,0,0,2.35-1.11,6.15,6.15,0,0,0,1.7-1.82,4.75,4.75,0,0,0,.66-2.51,5.29,5.29,0,0,0-.52-2.53,4.59,4.59,0,0,0-1.61-1.68A12.1,12.1,0,0,0,313,252.3L309.1,251a24.54,24.54,0,0,1-3.31-1.31,9.79,9.79,0,0,1-2.63-1.8,7.78,7.78,0,0,1-1.75-2.55,10,10,0,0,1,.31-7.78,8.84,8.84,0,0,1,2.55-3,11.68,11.68,0,0,1,3.65-1.82,14.58,14.58,0,0,1,4.26-.62,14.82,14.82,0,0,1,5.18.88,10.19,10.19,0,0,1,4.19,3.05Z"/><path class="cls-2" d="M357.42,263.61a12.92,12.92,0,0,0,5.37-1.09,12.75,12.75,0,0,0,4.19-3,13.6,13.6,0,0,0,2.72-4.43,15.6,15.6,0,0,0,0-10.83,13.56,13.56,0,0,0-2.72-4.42,12.46,12.46,0,0,0-4.19-3,13.66,13.66,0,0,0-10.74,0,12.56,12.56,0,0,0-4.19,3,13.73,13.73,0,0,0-2.72,4.42,15.6,15.6,0,0,0,0,10.83,13.78,13.78,0,0,0,2.72,4.43,12.8,12.8,0,0,0,9.56,4.07m0,3.69a18.12,18.12,0,0,1-7-1.33,16.89,16.89,0,0,1-5.53-3.66,16.47,16.47,0,0,1-3.65-5.59,19.77,19.77,0,0,1,0-14.05,16.53,16.53,0,0,1,3.65-5.58,16.92,16.92,0,0,1,5.53-3.67,19.24,19.24,0,0,1,14.06,0,17,17,0,0,1,5.54,3.67,16.5,16.5,0,0,1,3.64,5.58,19.63,19.63,0,0,1,0,14.05,16.45,16.45,0,0,1-3.64,5.59,16.94,16.94,0,0,1-5.54,3.66,18,18,0,0,1-7,1.33"/><path class="cls-2" d="M398.45,247.71h6.73a8.11,8.11,0,0,0,4.85-1.35,5.64,5.64,0,0,0,0-8.37,8.11,8.11,0,0,0-4.85-1.35h-6.73Zm-4-14.76h9.94a21.1,21.1,0,0,1,4.42.45,11,11,0,0,1,3.74,1.51,7.84,7.84,0,0,1,2.61,2.84,10.45,10.45,0,0,1-.08,8.92,8.11,8.11,0,0,1-2.67,2.84,11.22,11.22,0,0,1-3.57,1.47,17.55,17.55,0,0,1-3.69.42h-6.73v15h-4Z"/><path class="cls-2" d="M439.68,247.71h6.72a8.09,8.09,0,0,0,4.85-1.35,5.62,5.62,0,0,0,0-8.37,8.09,8.09,0,0,0-4.85-1.35h-6.72Zm-4-14.76h9.93a21,21,0,0,1,4.42.45,10.85,10.85,0,0,1,3.74,1.51,7.84,7.84,0,0,1,2.61,2.84,9.08,9.08,0,0,1,1,4.37,8.93,8.93,0,0,1-1.05,4.55,8.11,8.11,0,0,1-2.67,2.84,11.22,11.22,0,0,1-3.57,1.47,17.55,17.55,0,0,1-3.69.42h-6.72v15h-4Z"/><path class="cls-3" d="M80.44,180.85c-8,0-16.8,2.1-22.42,8.32a26.34,26.34,0,0,0-7.13,18A28.81,28.81,0,0,0,53.31,219a76.52,76.52,0,0,0,7.15,12.33q-16.55,3.16-26.1,14.57a40.1,40.1,0,0,0-7.57,13.75A48.89,48.89,0,0,0,25,274.47h0a40.61,40.61,0,0,0,6.77,21.72A47.09,47.09,0,0,0,39,305.5a57.45,57.45,0,0,0,24.3,13.82,60.6,60.6,0,0,0,17.1,2.45,84.12,84.12,0,0,0,20-2.27c12.3-2.72,21.71-8.81,30.54-17.07l.09-.08,4.47,4.3h-.05c5.79,5.66,15.07,13.81,28.6,13.81a36.5,36.5,0,0,0,7.08-.72,45.12,45.12,0,0,0,17.67-7v-2a29.25,29.25,0,0,1-14.58,4.39q-10.22,0-20.16-9.91L140.3,291.41q9.24-13.21,13-40.75c1-7,2.07-11.48,3.14-13.49a5,5,0,0,1,4.83-2.56,10.4,10.4,0,0,1,1.33.08v-1.76l-28.56.14v1.62l3-.18,1.28.18h.56a18.93,18.93,0,0,1,7.9,1.73q2.59,1.5,2.59,7.21a130.32,130.32,0,0,1-2.57,21.84,55.29,55.29,0,0,1-9.22,23.29L78.12,229.56q-18-17.77-18-28.88a16.25,16.25,0,0,1,4.29-11c2.87-3.24,7.17-4.86,12.87-4.86a38.92,38.92,0,0,1,19.29,5.64,62.11,62.11,0,0,1,17.36,14.88h1.83L110,190a86.16,86.16,0,0,0-13.87-6.47,38.1,38.1,0,0,0-4.36-1.24,45.29,45.29,0,0,0-11.34-1.41m-27,116.23q-17.82-16.23-17.82-35.23,0-21.06,27.44-27.53a104.25,104.25,0,0,0,7.69,8.84c4,4.2,6.12,6.45,6.48,6.76l51.1,49.72s-.84.76-1.25,1.1a67.59,67.59,0,0,1-14.83,9.62q-6.54,2.89-18.5,2.9-22.61,0-40.34-16.2Z"/></g></g></svg>